<?xml version="1.0" encoding="utf-8"?>
<!-- Svg Vector Icons : http://www.onlinewebfonts.com/icon -->
<!DOCTYPE svg PUBLIC "-//W3C//DTD SVG 1.1//EN" "http://www.w3.org/Graphics/SVG/1.1/DTD/svg11.dtd">
<svg version="1.1" xmlns="http://www.w3.org/2000/svg" xmlns:xlink="http://www.w3.org/1999/xlink" x="0px" y="0px" viewBox="0 0 1000 1000" enable-background="new 0 0 1000 1000" xml:space="preserve">
<metadata> Svg Vector Icons : http://www.onlinewebfonts.com/icon </metadata>
<g><g><path d="M805.9,10H194.2C92.4,10,10,92.4,10,194.2v611.7C10,907.6,92.4,990,194.2,990h611.7C907.6,990,990,907.6,990,805.8V194.2C990,92.4,907.6,10,805.9,10z M833.6,239.8c-14.5-4.5-32.3-7.8-54.6-7.8c-55.8,0-79.1,43.5-79.1,97v27.8H809v124.8H700.9v420.3H530.3V481.6H459V356.8h71.3v-21.2c0-65.7,20.1-138.3,69.1-182.8c42.3-40.1,101.4-54.6,150.5-54.6c37.9,0,66.9,4.5,90.3,11.2L833.6,239.8z"/></g><g></g><g></g><g></g><g></g><g></g><g></g><g></g><g></g><g></g><g></g><g></g><g></g><g></g><g></g><g></g></g>
</svg>