<svg width="35" height="61" viewBox="0 0 35 61" fill="none" xmlns="http://www.w3.org/2000/svg">
<path d="M18.9331 16.0173L22.1264 55.6516C22.4294 59.41 18.1028 61.8187 14.9244 59.6607L2.95375 51.5314C-0.396981 49.2558 0.750796 44.1757 4.77445 43.4766L30.9012 38.938C35.199 38.1918 36.0978 32.5788 32.2367 30.596L12.2157 20.3137C9.13353 18.7308 8.919 14.5154 11.8252 12.6438C14.7423 10.7656 18.6599 12.6252 18.9331 16.0173Z" fill="#AAAAAA"/>
<path d="M16.8233 4.47478C16.8233 6.68577 14.9805 8.47839 12.7075 8.47839C10.4346 8.47839 8.5918 6.68577 8.5918 4.47478C8.5918 2.26378 10.4346 0.471158 12.7075 0.471158C14.9805 0.471158 16.8233 2.26378 16.8233 4.47478Z" fill="#AAAAAA"/>
</svg>
