<svg width="15" height="15" viewBox="0 0 15 15" fill="none" xmlns="http://www.w3.org/2000/svg">
<path d="M14.6394 6.66467L8.01314 0.626953C7.72236 0.361816 7.28364 0.361816 6.99287 0.626953L0.367017 6.66467C0.134107 6.87708 0.0572029 7.2041 0.171094 7.4978C0.284986 7.7915 0.562208 7.98157 0.877149 7.98157H1.9355V14.0306C1.9355 14.2705 2.12996 14.465 2.36982 14.465H6.0019C6.24177 14.465 6.43623 14.2705 6.43623 14.0306V10.3575H8.57088V14.0306C8.57088 14.2705 8.76533 14.465 9.0052 14.465H12.6369C12.8768 14.465 13.0712 14.2705 13.0712 14.0306V7.98193H14.1296C14.4449 7.98193 14.7221 7.79187 14.8356 7.49817C14.9492 7.2041 14.8723 6.87708 14.6394 6.66467Z" fill="#010101"/>
<path d="M13.3922 4.34216V1.72961C13.3922 1.48975 13.1978 1.29529 12.9579 1.29529H10.041L13.3922 4.34216Z" fill="#010101"/>
</svg>
