<?xml version="1.0" encoding="UTF-8" standalone="no"?>
<svg
   xmlns:dc="http://purl.org/dc/elements/1.1/"
   xmlns:cc="http://creativecommons.org/ns#"
   xmlns:rdf="http://www.w3.org/1999/02/22-rdf-syntax-ns#"
   xmlns:svg="http://www.w3.org/2000/svg"
   xmlns="http://www.w3.org/2000/svg"
   id="svg8"
   version="1.1"
   viewBox="0 0 24 43"
   height="43mm"
   width="24mm">
  <defs
     id="defs2" />
  <metadata
     id="metadata5">
    <rdf:RDF>
      <cc:Work
         rdf:about="">
        <dc:format>image/svg+xml</dc:format>
        <dc:type
           rdf:resource="http://purl.org/dc/dcmitype/StillImage" />
        <dc:title></dc:title>
      </cc:Work>
    </rdf:RDF>
  </metadata>
  <g
     id="layer1">
    <g
       transform="translate(-129.65088,-123.96022)"
       id="g110">
      <g
         id="g44"
         transform="matrix(0.35277777,0,0,-0.35277777,142.63446,135.25116)">
        <path
           d="m 0,0 6.207,-79.197 c 0.589,-7.51 -7.821,-12.323 -13.999,-8.011 l -23.268,16.244 c -6.513,4.547 -4.282,14.698 3.539,16.095 l 50.784,9.069 c 8.354,1.491 10.101,12.707 2.596,16.669 L -13.057,-8.585 C -19.048,-5.422 -19.465,3.001 -13.816,6.741 -8.146,10.494 -0.531,6.778 0,0"
           style="fill:#000000;fill-opacity:1;fill-rule:nonzero;stroke:none"
           id="path46" />
      </g>
      <g
         id="g48"
         transform="matrix(0.35277777,0,0,-0.35277777,141.18751,127.11452)">
        <path
           d="m 0,0 c 0,-4.418 -3.582,-8 -8,-8 -4.418,0 -8,3.582 -8,8 0,4.418 3.582,8 8,8 4.418,0 8,-3.582 8,-8"
           style="fill:#000000;fill-opacity:1;fill-rule:nonzero;stroke:none"
           id="path50" />
      </g>
    </g>
  </g>
</svg>
