<svg width="15" height="15" viewBox="0 0 15 15" fill="none" xmlns="http://www.w3.org/2000/svg">
<path d="M12.8027 0H2.19727C0.98584 0 0 0.98584 0 2.19727V12.8027C0 14.0142 0.98584 15 2.19727 15H12.8027C14.0142 15 15 14.0142 15 12.8027V2.19727C15 0.98584 14.0142 0 12.8027 0ZM7.5293 11.4258C5.34814 11.4258 3.57422 9.65186 3.57422 7.4707C3.57422 5.28955 5.34814 3.51562 7.5293 3.51562C9.71008 3.51562 11.4844 5.28955 11.4844 7.4707C11.4844 9.65186 9.71008 11.4258 7.5293 11.4258ZM11.9238 4.39453C11.1969 4.39453 10.6055 3.8031 10.6055 3.07617C10.6055 2.34924 11.1969 1.75781 11.9238 1.75781C12.6508 1.75781 13.2422 2.34924 13.2422 3.07617C13.2422 3.8031 12.6508 4.39453 11.9238 4.39453Z" fill="black"/>
<path d="M11.9238 2.63672C11.6814 2.63672 11.4844 2.83374 11.4844 3.07617C11.4844 3.3186 11.6814 3.51562 11.9238 3.51562C12.1663 3.51562 12.3633 3.3186 12.3633 3.07617C12.3633 2.83374 12.1663 2.63672 11.9238 2.63672Z" fill="black"/>
<path d="M7.5293 4.39453C5.83337 4.39453 4.45312 5.77478 4.45312 7.4707C4.45312 9.16663 5.83337 10.5469 7.5293 10.5469C9.22522 10.5469 10.6055 9.16663 10.6055 7.4707C10.6055 5.77478 9.22522 4.39453 7.5293 4.39453Z" fill="black"/>
</svg>
