<svg width="100" height="23" viewBox="0 0 100 23" fill="none" xmlns="http://www.w3.org/2000/svg">
<path d="M23.5 17.1172H29.2344V19H20.5703V17.625L26.1953 9.52344H20.5781V7.625H29.1094V8.96875L23.5 17.1172ZM42.4481 7.625V15.1172C42.4481 16.362 42.0575 17.3464 41.2762 18.0703C40.5002 18.7943 39.4377 19.1562 38.0887 19.1562C36.7606 19.1562 35.7059 18.8047 34.9247 18.1016C34.1434 17.3984 33.745 16.4323 33.7294 15.2031V7.625H36.0731V15.1328C36.0731 15.8776 36.2502 16.4219 36.6044 16.7656C36.9637 17.1042 37.4585 17.2734 38.0887 17.2734C39.4065 17.2734 40.0757 16.5807 40.0966 15.1953V7.625H42.4481ZM47.49 19V7.625H51.4744C52.8546 7.625 53.9015 7.89062 54.615 8.42188C55.3285 8.94792 55.6853 9.72135 55.6853 10.7422C55.6853 11.2995 55.5421 11.7917 55.2556 12.2188C54.9692 12.6406 54.5707 12.9505 54.0603 13.1484C54.6436 13.2943 55.102 13.5885 55.4353 14.0312C55.7739 14.474 55.9431 15.0156 55.9431 15.6562C55.9431 16.75 55.5942 17.5781 54.8962 18.1406C54.1983 18.7031 53.2035 18.9896 51.9119 19H47.49ZM49.8337 14.0469V17.1172H51.8416C52.3936 17.1172 52.8233 16.987 53.1306 16.7266C53.4431 16.4609 53.5994 16.0964 53.5994 15.6328C53.5994 14.5911 53.0603 14.0625 51.9822 14.0469H49.8337ZM49.8337 12.3906H51.5681C52.7504 12.3698 53.3416 11.8984 53.3416 10.9766C53.3416 10.4609 53.1905 10.0911 52.8884 9.86719C52.5916 9.63802 52.1202 9.52344 51.4744 9.52344H49.8337V12.3906ZM67.2506 16.6562H63.1413L62.36 19H59.8678L64.1022 7.625H66.2741L70.5319 19H68.0397L67.2506 16.6562ZM63.7741 14.7578H66.6178L65.1881 10.5L63.7741 14.7578ZM77.2066 19H74.8628V7.625H77.2066V19ZM86.7172 14.8359H84.85V19H82.5062V7.625H86.7328C88.0766 7.625 89.113 7.92448 89.8422 8.52344C90.5714 9.1224 90.9359 9.96875 90.9359 11.0625C90.9359 11.8385 90.7667 12.487 90.4281 13.0078C90.0948 13.5234 89.587 13.9349 88.9047 14.2422L91.3656 18.8906V19H88.85L86.7172 14.8359ZM84.85 12.9375H86.7406C87.3292 12.9375 87.7849 12.7891 88.1078 12.4922C88.4307 12.1901 88.5922 11.776 88.5922 11.25C88.5922 10.7135 88.4385 10.2917 88.1312 9.98438C87.8292 9.67708 87.363 9.52344 86.7328 9.52344H84.85V12.9375ZM95.8138 17.8906C95.8138 17.5312 95.9335 17.2396 96.1731 17.0156C96.4179 16.7917 96.7226 16.6797 97.0872 16.6797C97.457 16.6797 97.7617 16.7917 98.0013 17.0156C98.246 17.2396 98.3684 17.5312 98.3684 17.8906C98.3684 18.2448 98.2486 18.5339 98.0091 18.7578C97.7695 18.9766 97.4622 19.0859 97.0872 19.0859C96.7174 19.0859 96.4127 18.9766 96.1731 18.7578C95.9335 18.5339 95.8138 18.2448 95.8138 17.8906Z" fill="black"/>
<path d="M7.0329 6.03932L8.21898 20.9834C8.33153 22.4005 6.72448 23.3087 5.54394 22.495L1.09771 19.4299C-0.14685 18.5719 0.279467 16.6564 1.77397 16.3928L11.4782 14.6816C13.0745 14.4002 13.4084 12.2838 11.9742 11.5362L4.53786 7.65927C3.39305 7.06242 3.31337 5.47304 4.39283 4.76732C5.47629 4.05915 6.93143 4.76034 7.0329 6.03932Z" fill="black"/>
<path d="M6.2493 1.68716C6.2493 2.52081 5.56483 3.19672 4.7206 3.19672C3.87637 3.19672 3.19189 2.52081 3.19189 1.68716C3.19189 0.8535 3.87637 0.177595 4.7206 0.177595C5.56483 0.177595 6.2493 0.8535 6.2493 1.68716Z" fill="black"/>
</svg>
