<svg width="102" height="26" viewBox="0 0 102 26" fill="none" xmlns="http://www.w3.org/2000/svg">
<path d="M25.5 20.1172H31.2344V22H22.5703V20.625L28.1953 12.5234H22.5781V10.625H31.1094V11.9688L25.5 20.1172ZM44.4481 10.625V18.1172C44.4481 19.362 44.0575 20.3464 43.2762 21.0703C42.5002 21.7943 41.4377 22.1562 40.0887 22.1562C38.7606 22.1562 37.7059 21.8047 36.9247 21.1016C36.1434 20.3984 35.745 19.4323 35.7294 18.2031V10.625H38.0731V18.1328C38.0731 18.8776 38.2502 19.4219 38.6044 19.7656C38.9637 20.1042 39.4585 20.2734 40.0887 20.2734C41.4065 20.2734 42.0757 19.5807 42.0966 18.1953V10.625H44.4481ZM49.49 22V10.625H53.4744C54.8546 10.625 55.9015 10.8906 56.615 11.4219C57.3285 11.9479 57.6853 12.7214 57.6853 13.7422C57.6853 14.2995 57.5421 14.7917 57.2556 15.2188C56.9692 15.6406 56.5707 15.9505 56.0603 16.1484C56.6436 16.2943 57.102 16.5885 57.4353 17.0312C57.7739 17.474 57.9431 18.0156 57.9431 18.6562C57.9431 19.75 57.5942 20.5781 56.8962 21.1406C56.1983 21.7031 55.2035 21.9896 53.9119 22H49.49ZM51.8337 17.0469V20.1172H53.8416C54.3936 20.1172 54.8233 19.987 55.1306 19.7266C55.4431 19.4609 55.5994 19.0964 55.5994 18.6328C55.5994 17.5911 55.0603 17.0625 53.9822 17.0469H51.8337ZM51.8337 15.3906H53.5681C54.7504 15.3698 55.3416 14.8984 55.3416 13.9766C55.3416 13.4609 55.1905 13.0911 54.8884 12.8672C54.5916 12.638 54.1202 12.5234 53.4744 12.5234H51.8337V15.3906ZM69.2506 19.6562H65.1413L64.36 22H61.8678L66.1022 10.625H68.2741L72.5319 22H70.0397L69.2506 19.6562ZM65.7741 17.7578H68.6178L67.1881 13.5L65.7741 17.7578ZM79.2066 22H76.8628V10.625H79.2066V22ZM88.7172 17.8359H86.85V22H84.5062V10.625H88.7328C90.0766 10.625 91.113 10.9245 91.8422 11.5234C92.5714 12.1224 92.9359 12.9688 92.9359 14.0625C92.9359 14.8385 92.7667 15.487 92.4281 16.0078C92.0948 16.5234 91.587 16.9349 90.9047 17.2422L93.3656 21.8906V22H90.85L88.7172 17.8359ZM86.85 15.9375H88.7406C89.3292 15.9375 89.7849 15.7891 90.1078 15.4922C90.4307 15.1901 90.5922 14.776 90.5922 14.25C90.5922 13.7135 90.4385 13.2917 90.1312 12.9844C89.8292 12.6771 89.363 12.5234 88.7328 12.5234H86.85V15.9375ZM97.8138 20.8906C97.8138 20.5312 97.9335 20.2396 98.1731 20.0156C98.4179 19.7917 98.7226 19.6797 99.0872 19.6797C99.457 19.6797 99.7617 19.7917 100.001 20.0156C100.246 20.2396 100.368 20.5312 100.368 20.8906C100.368 21.2448 100.249 21.5339 100.009 21.7578C99.7695 21.9766 99.4622 22.0859 99.0872 22.0859C98.7174 22.0859 98.4127 21.9766 98.1731 21.7578C97.9335 21.5339 97.8138 21.2448 97.8138 20.8906Z" fill="black"/>
<path d="M8.11447 6.82709L9.48303 23.7204C9.61289 25.3223 7.7586 26.349 6.39644 25.4292L1.26617 21.9642C-0.169856 20.9943 0.322049 18.829 2.04647 18.5311L13.2436 16.5966C15.0856 16.2785 15.4708 13.8861 13.816 13.0409L5.23558 8.65833C3.91465 7.98364 3.82271 6.18695 5.06823 5.38918C6.31839 4.58864 7.99739 5.38129 8.11447 6.82709Z" fill="black"/>
<path d="M7.20991 1.90725C7.20991 2.84964 6.42013 3.61371 5.44602 3.61371C4.47191 3.61371 3.68213 2.84964 3.68213 1.90725C3.68213 0.964856 4.47191 0.200788 5.44602 0.200788C6.42013 0.200788 7.20991 0.964856 7.20991 1.90725Z" fill="black"/>
</svg>
