<svg width="100" height="19" viewBox="0 0 100 19" fill="none" xmlns="http://www.w3.org/2000/svg">
<path d="M23.5 13.1172H29.2344V15H20.5703V13.625L26.1953 5.52344H20.5781V3.625H29.1094V4.96875L23.5 13.1172ZM42.4481 3.625V11.1172C42.4481 12.362 42.0575 13.3464 41.2762 14.0703C40.5002 14.7943 39.4377 15.1562 38.0887 15.1562C36.7606 15.1562 35.7059 14.8047 34.9247 14.1016C34.1434 13.3984 33.745 12.4323 33.7294 11.2031V3.625H36.0731V11.1328C36.0731 11.8776 36.2502 12.4219 36.6044 12.7656C36.9637 13.1042 37.4585 13.2734 38.0887 13.2734C39.4065 13.2734 40.0757 12.5807 40.0966 11.1953V3.625H42.4481ZM47.49 15V3.625H51.4744C52.8546 3.625 53.9015 3.89062 54.615 4.42188C55.3285 4.94792 55.6853 5.72135 55.6853 6.74219C55.6853 7.29948 55.5421 7.79167 55.2556 8.21875C54.9692 8.64062 54.5707 8.95052 54.0603 9.14844C54.6436 9.29427 55.102 9.58854 55.4353 10.0312C55.7739 10.474 55.9431 11.0156 55.9431 11.6562C55.9431 12.75 55.5942 13.5781 54.8962 14.1406C54.1983 14.7031 53.2035 14.9896 51.9119 15H47.49ZM49.8337 10.0469V13.1172H51.8416C52.3936 13.1172 52.8233 12.987 53.1306 12.7266C53.4431 12.4609 53.5994 12.0964 53.5994 11.6328C53.5994 10.5911 53.0603 10.0625 51.9822 10.0469H49.8337ZM49.8337 8.39062H51.5681C52.7504 8.36979 53.3416 7.89844 53.3416 6.97656C53.3416 6.46094 53.1905 6.09115 52.8884 5.86719C52.5916 5.63802 52.1202 5.52344 51.4744 5.52344H49.8337V8.39062ZM67.2506 12.6562H63.1413L62.36 15H59.8678L64.1022 3.625H66.2741L70.5319 15H68.0397L67.2506 12.6562ZM63.7741 10.7578H66.6178L65.1881 6.5L63.7741 10.7578ZM77.2066 15H74.8628V3.625H77.2066V15ZM86.7172 10.8359H84.85V15H82.5062V3.625H86.7328C88.0766 3.625 89.113 3.92448 89.8422 4.52344C90.5714 5.1224 90.9359 5.96875 90.9359 7.0625C90.9359 7.83854 90.7667 8.48698 90.4281 9.00781C90.0948 9.52344 89.587 9.9349 88.9047 10.2422L91.3656 14.8906V15H88.85L86.7172 10.8359ZM84.85 8.9375H86.7406C87.3292 8.9375 87.7849 8.78906 88.1078 8.49219C88.4307 8.1901 88.5922 7.77604 88.5922 7.25C88.5922 6.71354 88.4385 6.29167 88.1312 5.98438C87.8292 5.67708 87.363 5.52344 86.7328 5.52344H84.85V8.9375ZM95.8138 13.8906C95.8138 13.5312 95.9335 13.2396 96.1731 13.0156C96.4179 12.7917 96.7226 12.6797 97.0872 12.6797C97.457 12.6797 97.7617 12.7917 98.0013 13.0156C98.246 13.2396 98.3684 13.5312 98.3684 13.8906C98.3684 14.2448 98.2486 14.5339 98.0091 14.7578C97.7695 14.9766 97.4622 15.0859 97.0872 15.0859C96.7174 15.0859 96.4127 14.9766 96.1731 14.7578C95.9335 14.5339 95.8138 14.2448 95.8138 13.8906Z" fill="black"/>
<path d="M16.3197 9.38155C16.3197 13.685 12.8314 17.1732 8.52799 17.1732C4.22485 17.1732 0.736328 13.685 0.736328 9.38155C0.736328 5.07813 4.22485 1.58988 8.52799 1.58988C12.8314 1.58988 16.3197 5.07813 16.3197 9.38155Z" fill="black"/>
<path d="M8.90094 6.40116L9.52938 14.4204C9.58929 15.181 8.73759 15.6681 8.11183 15.2315L5.75606 13.5867C5.09646 13.1262 5.32242 12.0985 6.11421 11.9572L11.2564 11.0388C12.1025 10.8875 12.2793 9.75211 11.5192 9.35097L7.57878 7.27033C6.9721 6.95006 6.92992 6.09728 7.50193 5.71844C8.0761 5.33853 8.84721 5.71468 8.90094 6.40116Z" fill="white"/>
<path d="M8.48705 4.06573C8.48705 4.51308 8.12433 4.87579 7.67698 4.87579C7.22963 4.87579 6.86719 4.51308 6.86719 4.06573C6.86719 3.61838 7.22963 3.25566 7.67698 3.25566C8.12433 3.25566 8.48705 3.61838 8.48705 4.06573Z" fill="white"/>
</svg>
