<svg width="9" height="36" viewBox="0 0 9 36" fill="none" xmlns="http://www.w3.org/2000/svg">
<path d="M0.890625 33.4512L6.04688 31.625L0.890625 29.8086L0.890625 27.8848H8V29.3545H6.05664L2.70215 29.208L8 31.127V32.1328L2.70703 34.0469L6.05664 33.9004H8V35.3652H0.890625L0.890625 33.4512ZM4.91895 19.7781V22.5906H6.82324V19.2898H8L8 24.0555H0.890625L0.890625 19.2996H2.07715V22.5906H3.77148V19.7781H4.91895ZM8 10.0992V11.5641L3.32227 14.4156H8V15.8805H0.890625L0.890625 14.4156L5.57813 11.5592H0.890625L0.890625 10.0992H8ZM0.890625 0.889063H5.57324C6.35124 0.889063 6.96647 1.1332 7.41895 1.62148C7.87142 2.10651 8.09766 2.77057 8.09766 3.61367C8.09766 4.44375 7.87793 5.10293 7.43848 5.59121C6.99902 6.07949 6.39518 6.32852 5.62695 6.33828H0.890625L0.890625 4.87344H5.58301C6.0485 4.87344 6.38867 4.76276 6.60352 4.54141C6.8151 4.3168 6.9209 4.00755 6.9209 3.61367C6.9209 2.7901 6.48796 2.37181 5.62207 2.35879H0.890625V0.889063Z" fill="black"/>
</svg>
