<svg width="10" height="31" viewBox="0 0 10 31" fill="none" xmlns="http://www.w3.org/2000/svg">
<path d="M6.76172 25.8145C6.42969 25.8145 6.17578 25.9316 6 26.166C5.82031 26.4004 5.63281 26.8223 5.4375 27.4316C5.23828 28.041 5.04297 28.5234 4.85156 28.8789C4.32812 29.8477 3.62305 30.332 2.73633 30.332C2.27539 30.332 1.86523 30.2031 1.50586 29.9453C1.14258 29.6836 0.859375 29.3105 0.65625 28.8262C0.453125 28.3379 0.351563 27.791 0.351563 27.1855C0.351563 26.5762 0.462891 26.0332 0.685547 25.5566C0.904297 25.0801 1.21484 24.7109 1.61719 24.4492C2.01953 24.1836 2.47656 24.0508 2.98828 24.0508V25.8086C2.59766 25.8086 2.29492 25.9316 2.08008 26.1777C1.86133 26.4238 1.75195 26.7695 1.75195 27.2148C1.75195 27.6445 1.84375 27.9785 2.02734 28.2168C2.20703 28.4551 2.44531 28.5742 2.74219 28.5742C3.01953 28.5742 3.25195 28.4355 3.43945 28.1582C3.62695 27.877 3.80273 27.4648 3.9668 26.9219C4.26758 25.9219 4.64062 25.1934 5.08594 24.7363C5.53125 24.2793 6.08594 24.0508 6.75 24.0508C7.48828 24.0508 8.06836 24.3301 8.49023 24.8887C8.9082 25.4473 9.11719 26.1992 9.11719 27.1445C9.11719 27.8008 8.99805 28.3984 8.75977 28.9375C8.51758 29.4766 8.1875 29.8887 7.76953 30.1738C7.35156 30.4551 6.86719 30.5957 6.31641 30.5957V28.832C7.25781 28.832 7.72852 28.2695 7.72852 27.1445C7.72852 26.7266 7.64453 26.4004 7.47656 26.166C7.30469 25.9316 7.06641 25.8145 6.76172 25.8145ZM7.75195 20.3301C7.75195 20.0176 7.66602 19.7637 7.49414 19.5684C7.32227 19.373 7.09375 19.2715 6.80859 19.2637V17.6758C7.23828 17.6797 7.63281 17.7969 7.99219 18.0273C8.34766 18.2578 8.625 18.5742 8.82422 18.9766C9.01953 19.375 9.11719 19.8164 9.11719 20.3008C9.11719 21.207 8.83008 21.9219 8.25586 22.4453C7.67773 22.9688 6.88086 23.2305 5.86523 23.2305H5.75391C4.77734 23.2305 3.99805 22.9707 3.41602 22.4512C2.83398 21.9316 2.54297 21.2188 2.54297 20.3125C2.54297 19.5195 2.76953 18.8848 3.22266 18.4082C3.67188 17.9277 4.27148 17.6836 5.02148 17.6758V19.2637C4.69336 19.2715 4.42773 19.373 4.22461 19.5684C4.01758 19.7637 3.91406 20.0215 3.91406 20.3418C3.91406 20.7363 4.05859 21.0352 4.34766 21.2383C4.63281 21.4375 5.09766 21.5371 5.74219 21.5371H5.91797C6.57031 21.5371 7.03906 21.4375 7.32422 21.2383C7.60938 21.0391 7.75195 20.7363 7.75195 20.3301ZM4.24805 13.1465C4.2168 13.377 4.20117 13.5801 4.20117 13.7559C4.20117 14.3965 4.41797 14.8164 4.85156 15.0156H9L9 16.709H2.66016V15.1094L3.41602 15.0625C2.83398 14.7227 2.54297 14.252 2.54297 13.6504C2.54297 13.4629 2.56836 13.2871 2.61914 13.123L4.24805 13.1465ZM5.77148 12.8008C5.14258 12.8008 4.58203 12.6797 4.08984 12.4375C3.59766 12.1953 3.2168 11.8477 2.94727 11.3945C2.67773 10.9375 2.54297 10.4082 2.54297 9.80664C2.54297 8.95117 2.80469 8.25391 3.32813 7.71484C3.85156 7.17188 4.5625 6.86914 5.46094 6.80664L5.89453 6.79492C6.86719 6.79492 7.64844 7.06641 8.23828 7.60938C8.82422 8.15234 9.11719 8.88086 9.11719 9.79492C9.11719 10.709 8.82422 11.4395 8.23828 11.9863C7.65234 12.5293 6.85547 12.8008 5.84766 12.8008H5.77148ZM5.89453 11.1074C6.49609 11.1074 6.95703 10.9941 7.27734 10.7676C7.59375 10.541 7.75195 10.2168 7.75195 9.79492C7.75195 9.38477 7.5957 9.06445 7.2832 8.83398C6.9668 8.60352 6.46289 8.48828 5.77148 8.48828C5.18164 8.48828 4.72461 8.60352 4.40039 8.83398C4.07617 9.06445 3.91406 9.38867 3.91406 9.80664C3.91406 10.2207 4.07617 10.541 4.40039 10.7676C4.7207 10.9941 5.21875 11.1074 5.89453 11.1074ZM9 3.96484V5.66406H0L0 3.96484H9ZM9 0.777344V2.47656H0L0 0.777344H9Z" fill="white"/>
</svg>
