<svg width="261" height="286" viewBox="0 0 261 286" fill="none" xmlns="http://www.w3.org/2000/svg">
<path d="M260.87 167.355H4.9209V285.483H260.87V167.355Z" fill="#FBB540"/>
<path d="M260.87 206.731H4.9209V246.107H260.87V206.731Z" fill="#EA9D2D"/>
<path d="M68.9065 118.132H44.2974V167.355H68.9065V118.132Z" fill="#683B0D"/>
<path d="M34.4512 18.4588L35.8117 19.3658C42.1052 23.5628 46.8234 29.741 49.2182 36.9176C51.6131 29.741 56.3273 23.5628 62.6208 19.3658L63.9813 18.4588L62.6208 17.5518C56.3273 13.3548 51.6091 7.17666 49.2182 0C46.8234 7.17666 42.1092 13.3548 35.8117 17.5518L34.4512 18.4588Z" fill="#FBB540"/>
<path d="M4.9209 50.4554L6.28145 51.3624C12.5749 55.5594 17.2931 61.7376 19.688 68.9142C22.0828 61.7376 26.797 55.5594 33.0905 51.3624L34.451 50.4554L33.0905 49.5484C26.797 45.3514 22.0788 39.1732 19.688 31.9966C17.2931 39.1732 12.5789 45.3514 6.28145 49.5484L4.9209 50.4554Z" fill="#FBB540"/>
<path d="M118.598 22.3853L113.207 19.692V38.2185C113.207 41.6318 111.441 44.7984 108.537 46.5926C105.633 48.3867 102.013 48.5498 98.9574 47.0262C95.6197 45.3593 93.5152 41.95 93.5152 38.2224V19.696L88.1248 22.3892C79.3648 26.7692 73.8271 35.7281 73.8271 45.5264C73.8271 51.1237 75.6452 56.5699 79.0028 61.0493L88.5942 73.8392V167.359H118.128V73.8352L127.72 61.0453C131.077 56.5659 132.895 51.1197 132.895 45.5224C132.895 35.7241 127.358 26.7652 118.598 22.3853Z" fill="#CBCBCB"/>
<path d="M68.9101 88.5984H39.376V118.133H68.9101V88.5984Z" fill="#0BAFEA"/>
<path d="M19.6881 88.5984H0V118.133H19.6881V88.5984Z" fill="#0BAFEA"/>
<path d="M39.3761 93.5233L19.688 88.6023V118.136L39.3761 113.215V93.5233Z" fill="#0A9ACD"/>
<path d="M68.9062 93.5234H88.5943L103.361 123.058H94.681C87.9339 123.058 81.7678 119.246 78.7523 113.212H68.9062V93.5234Z" fill="#0A9ACD"/>
<path d="M29.53 191.964H24.609C21.8919 191.964 19.688 189.76 19.688 187.043C19.688 184.326 21.8919 182.122 24.609 182.122H29.53C32.2471 182.122 34.4511 184.326 34.4511 187.043C34.4511 189.76 32.2471 191.964 29.53 191.964Z" fill="#C38325"/>
<path d="M29.53 231.34H24.609C21.8919 231.34 19.688 229.136 19.688 226.419C19.688 223.702 21.8919 221.498 24.609 221.498H29.53C32.2471 221.498 34.4511 223.702 34.4511 226.419C34.4511 229.136 32.2471 231.34 29.53 231.34Z" fill="#C38325"/>
<path d="M29.53 270.716H24.609C21.8919 270.716 19.688 268.512 19.688 265.795C19.688 263.078 21.8919 260.874 24.609 260.874H29.53C32.2471 260.874 34.4511 263.078 34.4511 265.795C34.4511 268.512 32.2471 270.716 29.53 270.716Z" fill="#C38325"/>
<path d="M167.351 63.9893C153.988 63.9932 142.292 72.968 138.831 85.8813C135.374 98.7905 141.015 112.412 152.584 119.095V167.355H182.118V119.095C193.691 112.412 199.328 98.7865 195.871 85.8813C192.41 72.968 180.714 63.9932 167.351 63.9893ZM172.853 103.051H161.849L156.343 93.5194L161.849 83.9876H172.853L178.359 93.5194L172.853 103.051Z" fill="#D32B39"/>
<path d="M216.569 19.692L211.648 39.3801L216.569 54.1471V118.136H236.257V54.1471L241.178 39.3801L236.257 19.692H216.569Z" fill="#CBCBCB"/>
<path d="M241.182 39.3801H211.648L216.569 19.692H236.257L241.182 39.3801Z" fill="#EAEAE8"/>
<path d="M211.648 118.132H241.182C246.636 118.132 251.028 122.524 251.028 127.978C251.028 133.433 246.636 137.825 241.182 137.825H211.648C206.194 137.825 201.802 133.433 201.802 127.978C201.802 122.524 206.194 118.132 211.648 118.132Z" fill="#1EE0CD"/>
<path d="M241.182 137.821H211.648V167.355H241.182V137.821Z" fill="#1EE0CD"/>
<path d="M241.182 137.821H211.648V147.667H241.182V137.821Z" fill="#1EAF9D"/>
<path d="M68.9065 118.132H44.2974V127.978H68.9065V118.132Z" fill="#533222"/>
</svg>
