<svg width="227" height="271" viewBox="0 0 227 271" fill="none" xmlns="http://www.w3.org/2000/svg">
<g clip-path="url(#clip0)" filter="url(#filter0_d)">
<path d="M120.24 204.229C120.309 204.281 120.366 204.346 120.406 204.419C120.449 204.496 120.475 204.581 120.482 204.663C120.57 205.732 120.792 206.787 121.141 207.798C121.467 208.743 122.499 209.245 123.444 208.919C123.797 208.797 124.087 208.577 124.297 208.301C124.649 207.836 124.77 207.209 124.565 206.616C124.314 205.89 124.155 205.132 124.091 204.364C124.042 203.771 123.87 203.203 123.582 202.677C123.299 202.16 122.899 201.698 122.425 201.34C120.559 199.928 117.893 200.298 116.482 202.164L102.167 221.093C101.499 221.976 100.238 222.151 99.3549 221.483L80.5493 207.261C79.612 206.553 78.4561 206.251 77.2941 206.412C76.1301 206.574 75.0986 207.179 74.3898 208.116C73.6432 209.104 73.3478 210.373 73.5795 211.598C74.0585 214.137 73.4413 216.772 71.8861 218.829C70.3313 220.885 68.0617 222.16 65.496 222.42C62.9324 222.679 60.4483 221.878 58.5016 220.165C55.1059 217.175 54.4203 212.069 56.9062 208.287C58.4612 205.922 60.9617 204.424 63.7639 204.176C64.375 204.122 64.9597 203.945 65.5062 203.648C66.243 203.244 66.8469 202.637 67.2526 201.893C68.2842 200.001 67.7344 197.57 65.9731 196.238L47.2339 182.067C46.3509 181.399 46.1759 180.137 46.8436 179.254L61.0656 160.449C62.5281 158.515 62.1446 155.752 60.2108 154.289L59.9046 154.058C58.9204 153.313 57.6527 153.018 56.4219 153.247C53.8853 153.728 51.25 153.11 49.192 151.554C47.1357 149.999 45.8605 147.729 45.6012 145.163C45.3423 142.6 46.1438 140.117 47.8576 138.17C50.8455 134.774 55.9524 134.089 59.7362 136.575C62.0998 138.13 63.5983 140.631 63.8476 143.437C63.9584 144.678 64.5873 145.817 65.573 146.562L65.8792 146.794C67.813 148.256 70.5762 147.873 72.0387 145.939L75.4553 141.421C76.0586 140.623 75.901 139.487 75.1032 138.884C74.3054 138.281 73.1698 138.438 72.5663 139.236L69.1496 143.754C68.8919 144.095 68.4048 144.162 68.064 143.905L67.7579 143.673C67.5857 143.543 67.4754 143.34 67.4554 143.116C67.1078 139.202 65.0197 135.715 61.726 133.549C56.4426 130.076 49.3112 131.034 45.1388 135.777C42.7514 138.487 41.6362 141.95 41.9976 145.527C42.3539 149.055 44.1799 152.305 47.0071 154.443C49.8789 156.614 53.5559 157.476 57.0907 156.807C57.3174 156.765 57.5465 156.815 57.7197 156.946L58.0259 157.178C58.3668 157.436 58.4343 157.923 58.1766 158.264L43.9546 177.069C42.0822 179.545 42.5731 183.082 45.0489 184.955L63.7881 199.127C64.1243 199.381 64.2492 199.834 64.0724 200.158C63.9981 200.295 63.8945 200.4 63.7689 200.469C63.6676 200.524 63.56 200.557 63.4467 200.567C59.5332 200.914 56.0476 203.002 53.88 206.296C50.4084 211.577 51.3665 218.708 56.1087 222.884C58.8206 225.27 62.2838 226.385 65.8609 226.023C69.3882 225.666 72.6373 223.84 74.7751 221.013C76.9452 218.144 77.8067 214.467 77.1386 210.925C77.0964 210.702 77.1476 210.474 77.2788 210.301C77.4478 210.077 77.6731 210.016 77.7922 210C77.91 209.983 78.1411 209.981 78.3646 210.15L97.1702 224.372C99.6461 226.245 103.183 225.754 105.056 223.278L119.371 204.349C119.577 204.076 119.967 204.022 120.24 204.229Z" fill="#3FBAC2"/>
<path d="M103.627 138.751C104.732 136.375 104.01 133.498 101.909 131.909L91.2576 123.854C88.7818 121.981 85.2444 122.472 83.372 124.948L77.6493 132.515C77.0459 133.313 77.2036 134.449 78.0013 135.052C78.7991 135.656 79.9348 135.498 80.5383 134.7L86.261 127.133C86.9286 126.25 88.1901 126.075 89.0731 126.743L99.725 134.798C100.473 135.364 100.733 136.384 100.343 137.224C97.2002 143.982 99.2397 152.154 105.192 156.655C111.144 161.156 119.561 160.892 125.208 156.028C125.909 155.424 126.961 155.396 127.71 155.962L141.194 166.16C142.077 166.828 142.252 168.089 141.584 168.972L127.269 187.901C126.586 188.804 126.295 189.92 126.451 191.043C126.607 192.166 127.19 193.161 128.094 193.844C129.053 194.569 130.281 194.853 131.464 194.623C134.02 194.123 136.676 194.737 138.751 196.306C140.778 197.839 142.087 200.169 142.343 202.699C142.602 205.262 141.801 207.743 140.087 209.69C137.38 212.764 132.91 213.656 129.216 211.859C128.317 211.421 127.233 211.795 126.795 212.695C126.358 213.594 126.732 214.678 127.631 215.115C132.785 217.624 139.025 216.377 142.806 212.084C143.026 211.834 143.235 211.577 143.433 211.315C145.385 208.734 146.274 205.581 145.946 202.335C145.59 198.806 143.763 195.555 140.935 193.417C138.041 191.227 134.335 190.371 130.771 191.068C130.597 191.101 130.418 191.06 130.279 190.955C130.1 190.82 130.052 190.641 130.039 190.546C130.025 190.45 130.023 190.264 130.158 190.086L144.473 171.157C146.346 168.681 145.855 165.144 143.379 163.271L129.894 153.073C127.794 151.485 124.829 151.574 122.843 153.284C118.481 157.042 111.976 157.245 107.376 153.766C102.776 150.287 101.199 143.972 103.627 138.751Z" fill="#3FBAC2"/>
</g>
<g clip-path="url(#clip1)" filter="url(#filter1_d)">
<path d="M123.052 120.555C123.006 120.627 122.946 120.69 122.877 120.736C122.803 120.785 122.721 120.818 122.64 120.832C121.582 121.012 120.55 121.323 119.573 121.757C118.659 122.163 118.247 123.233 118.653 124.147C118.804 124.488 119.048 124.759 119.342 124.944C119.835 125.255 120.47 125.322 121.043 125.067C121.745 124.756 122.487 124.532 123.247 124.403C123.834 124.303 124.385 124.084 124.884 123.751C125.375 123.425 125.801 122.987 126.118 122.484C127.364 120.505 126.767 117.88 124.788 116.634L104.704 103.989C103.767 103.4 103.485 102.158 104.075 101.221L116.637 81.2681C117.263 80.2737 117.464 79.0961 117.204 77.9523C116.944 76.8063 116.253 75.8303 115.258 75.2043C114.211 74.5448 112.921 74.359 111.72 74.6946C109.232 75.3889 106.553 74.9994 104.371 73.6257C102.19 72.2524 100.725 70.1002 100.247 67.5661C99.7689 65.0341 100.355 62.4906 101.895 60.4045C104.583 56.7656 109.613 55.6459 113.593 57.7993C116.083 59.1464 117.789 61.5097 118.276 64.2803C118.381 64.8846 118.607 65.452 118.951 65.9711C119.416 66.6707 120.073 67.2204 120.849 67.5611C122.822 68.4272 125.196 67.6715 126.373 65.8027L138.891 45.9204C139.48 44.9835 140.722 44.7013 141.659 45.2911L161.612 57.853C163.664 59.1448 166.384 58.5264 167.676 56.4746L167.88 56.1498C168.538 55.1055 168.724 53.8172 168.39 52.6105C167.695 50.1243 168.084 47.4458 169.459 45.2623C170.832 43.0806 172.985 41.6159 175.519 41.1382C178.051 40.661 180.593 41.2473 182.679 42.7884C186.319 45.4749 187.438 50.5045 185.284 54.4871C183.937 56.975 181.574 58.6819 178.799 59.1701C177.573 59.3866 176.491 60.1106 175.833 61.1565L175.628 61.4813C174.337 63.5331 174.955 66.2534 177.007 67.5451L181.8 70.563C182.647 71.0959 183.765 70.8417 184.298 69.9953C184.831 69.1488 184.577 68.0308 183.73 67.4977L178.937 64.4799C178.575 64.2523 178.466 63.7727 178.694 63.4111L178.898 63.0863C179.013 62.9037 179.206 62.7763 179.428 62.7372C183.298 62.0563 186.593 59.6777 188.47 56.2108C191.478 50.6498 189.914 43.6265 184.831 39.8749C181.927 37.728 178.381 36.913 174.848 37.5789C171.364 38.2355 168.282 40.3327 166.394 43.3324C164.476 46.3794 163.932 50.1166 164.9 53.5813C164.962 53.8035 164.931 54.036 164.815 54.2199L164.611 54.5447C164.383 54.9065 163.903 55.0153 163.542 54.7877L143.589 42.2258C140.962 40.5719 137.48 41.3635 135.826 43.9904L123.308 63.8728C123.084 64.2294 122.643 64.3926 122.305 64.2442C122.163 64.1819 122.049 64.0876 121.969 63.9683C121.906 63.8722 121.863 63.7678 121.844 63.6557C121.163 59.7863 118.785 56.492 115.318 54.6139C109.759 51.6067 102.736 53.1709 98.9816 58.2528C96.8361 61.1588 96.0214 64.7047 96.6879 68.2377C97.345 71.7216 99.4422 74.8026 102.441 76.6909C105.486 78.6077 109.223 79.1516 112.694 78.1832C112.914 78.122 113.145 78.1536 113.329 78.2694C113.566 78.4187 113.646 78.638 113.673 78.7552C113.699 78.8712 113.721 79.1013 113.572 79.3384L101.01 99.2913C99.3558 101.918 100.147 105.401 102.774 107.054L122.858 119.699C123.147 119.881 123.235 120.265 123.052 120.555Z" fill="#FFB400"/>
<path d="M186.87 98.4032C189.331 99.3009 192.136 98.3353 193.539 96.107L200.654 84.8054C202.308 82.1785 201.517 78.6961 198.89 77.0422L190.861 71.9875C190.014 71.4546 188.896 71.7088 188.363 72.5552C187.83 73.4017 188.084 74.5197 188.931 75.0527L196.96 80.1075C197.896 80.6972 198.179 81.9391 197.589 82.8759L190.474 94.1775C189.974 94.9715 188.98 95.3176 188.11 95.0007C181.108 92.4473 173.141 95.178 169.165 101.493C165.189 107.808 166.172 116.173 171.501 121.382C172.163 122.029 172.28 123.075 171.781 123.869L162.773 138.177C162.183 139.113 160.941 139.396 160.005 138.806L139.921 126.162C138.962 125.558 137.826 125.364 136.72 125.615C135.615 125.866 134.674 126.533 134.07 127.492C133.43 128.509 133.252 129.757 133.583 130.916C134.299 133.42 133.915 136.118 132.529 138.32C131.175 140.47 128.965 141.974 126.466 142.445C123.935 142.922 121.395 142.337 119.308 140.796C116.013 138.361 114.743 133.984 116.217 130.15C116.577 129.217 116.112 128.168 115.178 127.809C114.244 127.45 113.196 127.916 112.837 128.849C110.779 134.199 112.554 140.309 117.155 143.709C117.423 143.907 117.696 144.093 117.974 144.268C120.713 145.992 123.93 146.608 127.137 146.004C130.622 145.347 133.705 143.25 135.594 140.249C137.528 137.178 138.064 133.413 137.065 129.921C137.017 129.751 137.042 129.569 137.135 129.421C137.254 129.232 137.429 129.168 137.523 129.147C137.617 129.126 137.802 129.108 137.991 129.227L158.075 141.871C160.702 143.525 164.184 142.733 165.838 140.106L174.846 125.799C176.248 123.571 175.907 120.624 174.033 118.792C169.915 114.767 169.157 108.303 172.23 103.423C175.303 98.5416 181.46 96.4304 186.87 98.4032Z" fill="#FFB400"/>
</g>
<defs>
<filter id="filter0_d" x="-4" y="96.5002" width="181.698" height="181.698" filterUnits="userSpaceOnUse" color-interpolation-filters="sRGB">
<feFlood flood-opacity="0" result="BackgroundImageFix"/>
<feColorMatrix in="SourceAlpha" type="matrix" values="0 0 0 0 0 0 0 0 0 0 0 0 0 0 0 0 0 0 127 0"/>
<feOffset dy="4"/>
<feGaussianBlur stdDeviation="2"/>
<feColorMatrix type="matrix" values="0 0 0 0 0 0 0 0 0 0 0 0 0 0 0 0 0 0 0.25 0"/>
<feBlend mode="normal" in2="BackgroundImageFix" result="effect1_dropShadow"/>
<feBlend mode="normal" in="SourceGraphic" in2="effect1_dropShadow" result="shape"/>
</filter>
<filter id="filter1_d" x="51.5" y="0" width="179" height="179" filterUnits="userSpaceOnUse" color-interpolation-filters="sRGB">
<feFlood flood-opacity="0" result="BackgroundImageFix"/>
<feColorMatrix in="SourceAlpha" type="matrix" values="0 0 0 0 0 0 0 0 0 0 0 0 0 0 0 0 0 0 127 0"/>
<feOffset dy="4"/>
<feGaussianBlur stdDeviation="2"/>
<feColorMatrix type="matrix" values="0 0 0 0 0 0 0 0 0 0 0 0 0 0 0 0 0 0 0.25 0"/>
<feBlend mode="normal" in2="BackgroundImageFix" result="effect1_dropShadow"/>
<feBlend mode="normal" in="SourceGraphic" in2="effect1_dropShadow" result="shape"/>
</filter>
<clipPath id="clip0">
<rect width="124" height="124" fill="white" transform="translate(0 195.402) rotate(-52.9012)"/>
</clipPath>
<clipPath id="clip1">
<rect width="124" height="124" fill="white" transform="translate(121.565) rotate(32.1937)"/>
</clipPath>
</defs>
</svg>
