<svg width="79" height="13" viewBox="0 0 79 13" fill="none" xmlns="http://www.w3.org/2000/svg">
<path d="M3.5 10.1172H9.23438V12H0.570312V10.625L6.19531 2.52344H0.578125V0.625H9.10938V1.96875L3.5 10.1172ZM22.4481 0.625V8.11719C22.4481 9.36198 22.0575 10.3464 21.2762 11.0703C20.5002 11.7943 19.4377 12.1562 18.0887 12.1562C16.7606 12.1562 15.7059 11.8047 14.9247 11.1016C14.1434 10.3984 13.745 9.43229 13.7294 8.20312V0.625H16.0731V8.13281C16.0731 8.8776 16.2502 9.42188 16.6044 9.76562C16.9637 10.1042 17.4585 10.2734 18.0887 10.2734C19.4065 10.2734 20.0757 9.58073 20.0966 8.19531V0.625H22.4481ZM27.49 12V0.625H31.4744C32.8546 0.625 33.9015 0.890625 34.615 1.42188C35.3285 1.94792 35.6853 2.72135 35.6853 3.74219C35.6853 4.29948 35.5421 4.79167 35.2556 5.21875C34.9692 5.64062 34.5707 5.95052 34.0603 6.14844C34.6436 6.29427 35.102 6.58854 35.4353 7.03125C35.7739 7.47396 35.9431 8.01562 35.9431 8.65625C35.9431 9.75 35.5942 10.5781 34.8962 11.1406C34.1983 11.7031 33.2035 11.9896 31.9119 12H27.49ZM29.8337 7.04688V10.1172H31.8416C32.3936 10.1172 32.8233 9.98698 33.1306 9.72656C33.4431 9.46094 33.5994 9.09635 33.5994 8.63281C33.5994 7.59115 33.0603 7.0625 31.9822 7.04688H29.8337ZM29.8337 5.39062H31.5681C32.7504 5.36979 33.3416 4.89844 33.3416 3.97656C33.3416 3.46094 33.1905 3.09115 32.8884 2.86719C32.5916 2.63802 32.1202 2.52344 31.4744 2.52344H29.8337V5.39062ZM47.2506 9.65625H43.1413L42.36 12H39.8678L44.1022 0.625H46.2741L50.5319 12H48.0397L47.2506 9.65625ZM43.7741 7.75781H46.6178L45.1881 3.5L43.7741 7.75781ZM57.2066 12H54.8628V0.625H57.2066V12ZM66.7172 7.83594H64.85V12H62.5062V0.625H66.7328C68.0766 0.625 69.113 0.924479 69.8422 1.52344C70.5714 2.1224 70.9359 2.96875 70.9359 4.0625C70.9359 4.83854 70.7667 5.48698 70.4281 6.00781C70.0948 6.52344 69.587 6.9349 68.9047 7.24219L71.3656 11.8906V12H68.85L66.7172 7.83594ZM64.85 5.9375H66.7406C67.3292 5.9375 67.7849 5.78906 68.1078 5.49219C68.4307 5.1901 68.5922 4.77604 68.5922 4.25C68.5922 3.71354 68.4385 3.29167 68.1312 2.98438C67.8292 2.67708 67.363 2.52344 66.7328 2.52344H64.85V5.9375ZM75.8138 10.8906C75.8138 10.5312 75.9335 10.2396 76.1731 10.0156C76.4179 9.79167 76.7226 9.67969 77.0872 9.67969C77.457 9.67969 77.7617 9.79167 78.0013 10.0156C78.246 10.2396 78.3684 10.5312 78.3684 10.8906C78.3684 11.2448 78.2486 11.5339 78.0091 11.7578C77.7695 11.9766 77.4622 12.0859 77.0872 12.0859C76.7174 12.0859 76.4127 11.9766 76.1731 11.7578C75.9335 11.5339 75.8138 11.2448 75.8138 10.8906Z" fill="black"/>
</svg>
