<?xml version="1.0" encoding="UTF-8" standalone="no"?>
<svg
   xmlns:dc="http://purl.org/dc/elements/1.1/"
   xmlns:cc="http://creativecommons.org/ns#"
   xmlns:rdf="http://www.w3.org/1999/02/22-rdf-syntax-ns#"
   xmlns:svg="http://www.w3.org/2000/svg"
   xmlns="http://www.w3.org/2000/svg"
   id="svg8"
   version="1.1"
   viewBox="0 0 24 24"
   height="24mm"
   width="24mm">
  <defs
     id="defs2">
    <clipPath
       clipPathUnits="userSpaceOnUse"
       id="clipPath849">
      <path
         d="M 0,1024 H 1280 V 0 H 0 Z"
         id="path847" />
    </clipPath>
  </defs>
  <metadata
     id="metadata5">
    <rdf:RDF>
      <cc:Work
         rdf:about="">
        <dc:format>image/svg+xml</dc:format>
        <dc:type
           rdf:resource="http://purl.org/dc/dcmitype/StillImage" />
        <dc:title></dc:title>
      </cc:Work>
    </rdf:RDF>
  </metadata>
  <g
     id="layer1">
    <g
       transform="matrix(1.0752104,0,0,1.0752104,-34.715653,-111.71393)"
       id="g977">
      <g
         id="g851"
         transform="matrix(0.35277777,0,0,-0.35277777,53.71572,114.90476)">
        <path
           d="m 0,0 c 0,-16.017 -12.983,-29 -29,-29 -16.016,0 -29,12.983 -29,29 0,16.017 12.984,29 29,29 C -12.983,29 0,16.017 0,0"
           style="fill:#000000;fill-opacity:1;fill-rule:nonzero;stroke:none"
           id="path853" />
      </g>
      <g
         id="g855"
         transform="matrix(0.35277777,0,0,-0.35277777,43.976091,110.99147)">
        <path
           d="m 0,0 2.339,-29.847 c 0.223,-2.831 -2.947,-4.644 -5.276,-3.019 l -8.768,6.122 c -2.455,1.714 -1.614,5.539 1.333,6.065 l 19.139,3.418 c 3.149,0.563 3.807,4.789 0.978,6.282 L -4.921,-3.235 C -7.179,-2.043 -7.336,1.131 -5.207,2.541 -3.07,3.955 -0.2,2.555 0,0"
           style="fill:#ffffff;fill-opacity:1;fill-rule:nonzero;stroke:none"
           id="path857" />
      </g>
      <g
         id="g859"
         transform="matrix(0.35277777,0,0,-0.35277777,43.430732,107.92498)">
        <path
           d="m 0,0 c 0,-1.665 -1.35,-3.015 -3.015,-3.015 -1.665,0 -3.014,1.35 -3.014,3.015 0,1.665 1.349,3.015 3.014,3.015 C -1.35,3.015 0,1.665 0,0"
           style="fill:#ffffff;fill-opacity:1;fill-rule:nonzero;stroke:none"
           id="path861" />
      </g>
    </g>
  </g>
</svg>
